<svg width="100%" height="100%" id="svg" viewBox="0 0 1440 690" xmlns="http://www.w3.org/2000/svg" class="transition duration-300 ease-in-out delay-150"><path d="M 0,700 L 0,325 C 67.81857195708471,289.55114070785544 135.63714391416943,254.10228141571093 180,238 C 224.36285608583057,221.89771858428907 245.26999630040694,225.14201504501173 294,207 C 342.73000369959306,188.85798495498827 419.2828708842028,149.3296584042422 472,108 C 524.7171291157972,66.6703415957578 553.5985201627819,23.539351338019483 610,18 C 666.4014798372181,12.460648661980517 750.323048464669,44.512936243679874 812,57 C 873.676951535331,69.48706375632013 913.1092859785422,62.40890368726107 965,14 C 1016.8907140214578,-34.40890368726107 1081.2398076211618,-124.14855099272415 1135,-142 C 1188.7601923788382,-159.85144900727585 1231.931483536811,-105.81469971636452 1281,-116 C 1330.068516463189,-126.18530028363548 1385.0342582315945,-200.59265014181773 1440,-275 L 1440,700 L 0,700 Z" stroke="none" stroke-width="0" fill="#2196f3" fill-opacity="0.53" class="transition-all duration-300 ease-in-out delay-150 path-0"></path><path d="M 0,700 L 0,558 C 52.23815513626835,587.9750400789246 104.4763102725367,617.9500801578494 162,613 C 219.5236897274633,608.0499198421506 282.3329140461216,568.1747194475274 343,508 C 403.6670859538784,447.8252805524726 462.1920335429769,367.35104205204095 502,351 C 541.8079664570231,334.64895794795905 562.8989517819707,382.42111234430877 616,361 C 669.1010482180293,339.57888765569123 754.2121593291404,248.9645085707239 822,218 C 889.7878406708596,187.0354914292761 940.2524109014676,215.72085337279563 981,221 C 1021.7475890985324,226.27914662720437 1052.7781970649896,208.15207793809347 1100,180 C 1147.2218029350104,151.84792206190653 1210.6348008385744,113.67083487483043 1270,75 C 1329.3651991614256,36.32916512516957 1384.6825995807128,-2.8354174374152166 1440,-42 L 1440,700 L 0,700 Z" stroke="none" stroke-width="0" fill="#2196f3" fill-opacity="1" class="transition-all duration-300 ease-in-out delay-150 path-1"></path></svg>

